<svg width="105" height="56" fill="none" xmlns="http://www.w3.org/2000/svg"><path d="M80.883 28.939h8.785L79.264 42.574h-8.786l10.405-13.635zm9.35-1.333H80.227l-11.06 14.5a1.075 1.075 0 00-.112 1.166 1.12 1.12 0 001.004.628h9.875l11.15-14.612c.245-.328.28-.754.105-1.11a1.06 1.06 0 00-.949-.58l-.007.008zm-41.59-7.076a.32.32 0 01.28-.16h5.757l.83-4.76a.316.316 0 01.314-.25h5.394c.098 0 .182.027.237.09a.333.333 0 01.077.258l-.537 3.077 25.345.021c.14 0 .237.084.279.16.028.057.07.182-.014.294l-2.29 2.987h18.786c.112 0 .189.062.216.125a.21.21 0 010 .224L87.84 42.867a1.074 1.074 0 00-.112 1.165c.189.384.58.629 1.005.629H99.5a.304.304 0 01.307.355l-.837 4.801a.31.31 0 01-.314.252h-42.47c.05.237.07.467.07.718a3.89 3.89 0 01-3.893 3.894 3.89 3.89 0 01-3.894-3.894 3.895 3.895 0 013.894-3.893c1.465 0 2.75.816 3.412 2.016l17.027-22.33c.272-.572.14-.781-.014-1.123-.112-.259-.516-.517-.97-.517H59.899l-3.05 17.397c-.027.132-.16.23-.306.23h-5.394a.328.328 0 01-.238-.105.294.294 0 01-.07-.25l3.308-18.884-13.454 26.385a.687.687 0 01-.6.349h-4.584c-.16 0-.3-.12-.314-.259l-1.264-19.148-9.943 19.058a.693.693 0 01-.593.349h-4.648a.304.304 0 01-.307-.273l-3.036-29.092a.332.332 0 01.077-.244.328.328 0 01.237-.084h6.246c.174 0 .314.14.314.322l.935 18.98 9.19-19.141a.318.318 0 01.28-.168h5.694c.16 0 .3.12.307.259l.928 19.106 9.002-19.204.028.007zm6.916-6.504c-.642 0-1.193.46-1.305 1.096l-.684 3.908h-4.843c-.495 0-.935.265-1.186.725l-6.825 14.55-.677-14.068a1.33 1.33 0 00-1.325-1.214H32.51a1.34 1.34 0 00-1.186.732L24.31 34.361l-.691-14.012c0-.733-.6-1.326-1.326-1.326h-6.901a1.36 1.36 0 00-.984.411c-.245.272-.37.65-.342 1.04l3.091 29.713a1.33 1.33 0 001.319 1.18h5.129c.628 0 1.2-.342 1.5-.9l7.83-15.01.963 14.723c.076.67.642 1.18 1.319 1.18h5.087c.628 0 1.207-.35 1.5-.908l9.518-18.666-1.842 10.53a1.324 1.324 0 001.305 1.563h6.036c.628 0 1.158-.44 1.298-1.068l2.903-16.566h10.362L55.726 46.747a5.226 5.226 0 00-3.35-1.214 5.234 5.234 0 000 10.467c2.646 0 4.9-2.024 5.2-4.633H98.92c.65 0 1.2-.468 1.305-1.103l.949-5.38a1.358 1.358 0 00-.293-1.089 1.313 1.313 0 00-1.012-.467H89.152l15.631-20.46c.265-.398.286-.873.07-1.284a1.248 1.248 0 00-1.117-.677H87.009l1.061-1.389c.28-.419.307-.921.07-1.368a1.345 1.345 0 00-1.165-.711H62.572l.335-1.877a1.396 1.396 0 00-.307-1.096c-.251-.3-.607-.46-1.005-.46h-6.03l-.006.02z" fill="#fff"/><mask id="a" style="mask-type:luminance" maskUnits="userSpaceOnUse" x="14" y="14" width="91" height="42"><path d="M80.883 28.939h8.785L79.264 42.574h-8.786l10.405-13.635zm9.35-1.333H80.227l-11.06 14.5a1.075 1.075 0 00-.112 1.166 1.12 1.12 0 001.004.628h9.875l11.15-14.612c.245-.328.28-.754.105-1.11a1.06 1.06 0 00-.949-.58l-.007.008zm-41.59-7.076a.32.32 0 01.28-.16h5.757l.83-4.76a.316.316 0 01.314-.25h5.394c.098 0 .182.027.237.09a.333.333 0 01.077.258l-.537 3.077 25.345.021c.14 0 .237.084.279.16.028.057.07.182-.014.294l-2.29 2.987h18.786c.112 0 .189.062.216.125a.21.21 0 010 .224L87.84 42.867a1.074 1.074 0 00-.112 1.165c.189.384.58.629 1.005.629H99.5a.304.304 0 01.307.355l-.837 4.801a.31.31 0 01-.314.252h-42.47c.05.237.07.467.07.718a3.89 3.89 0 01-3.893 3.894 3.89 3.89 0 01-3.894-3.894 3.895 3.895 0 013.894-3.893c1.465 0 2.75.816 3.412 2.016l17.027-22.33c.272-.572.14-.781-.014-1.123-.112-.259-.516-.517-.97-.517H59.899l-3.05 17.397c-.027.132-.16.23-.306.23h-5.394a.328.328 0 01-.238-.105.294.294 0 01-.07-.25l3.308-18.884-13.454 26.385a.687.687 0 01-.6.349h-4.584c-.16 0-.3-.12-.314-.259l-1.264-19.148-9.943 19.058a.693.693 0 01-.593.349h-4.648a.304.304 0 01-.307-.273l-3.036-29.092a.332.332 0 01.077-.244.328.328 0 01.237-.084h6.246c.174 0 .314.14.314.322l.935 18.98 9.19-19.141a.318.318 0 01.28-.168h5.694c.16 0 .3.12.307.259l.928 19.106 9.002-19.204.028.007zm6.916-6.504c-.642 0-1.193.46-1.305 1.096l-.684 3.908h-4.843c-.495 0-.935.265-1.186.725l-6.825 14.55-.677-14.068a1.33 1.33 0 00-1.325-1.214H32.51a1.34 1.34 0 00-1.186.732L24.31 34.361l-.691-14.012c0-.733-.6-1.326-1.326-1.326h-6.901a1.36 1.36 0 00-.984.411c-.245.272-.37.65-.342 1.04l3.091 29.713a1.33 1.33 0 001.319 1.18h5.129c.628 0 1.2-.342 1.5-.9l7.83-15.01.963 14.723c.076.67.642 1.18 1.319 1.18h5.087c.628 0 1.207-.35 1.5-.908l9.518-18.666-1.842 10.53a1.324 1.324 0 001.305 1.563h6.036c.628 0 1.158-.44 1.298-1.068l2.903-16.566h10.362L55.726 46.747a5.226 5.226 0 00-3.35-1.214 5.234 5.234 0 000 10.467c2.646 0 4.9-2.024 5.2-4.633H98.92c.65 0 1.2-.468 1.305-1.103l.949-5.38a1.358 1.358 0 00-.293-1.089 1.313 1.313 0 00-1.012-.467H89.152l15.631-20.46c.265-.398.286-.873.07-1.284a1.248 1.248 0 00-1.117-.677H87.009l1.061-1.389c.28-.419.307-.921.07-1.368a1.345 1.345 0 00-1.165-.711H62.572l.335-1.877a1.396 1.396 0 00-.307-1.096c-.251-.3-.607-.46-1.005-.46h-6.03l-.006.02z" fill="#fff"/></mask><g mask="url(#a)"><path d="M105.069 14.026h-91.03v41.995h91.03V14.026z" fill="#fff"/></g><path d="M2.581.754h3.35L4.31 10.74h5.444l-.461 2.86H.501L2.581.76V.755zm10.314 0h10.132l-.433 2.673h-6.776l-.39 2.4h6.12l-.433 2.659-6.12.02-.39 2.422h6.957l-.433 2.673H10.815L12.895.76V.754zm11.248 0h11.012l-.447 2.763h-3.845l-1.632 10.077h-3.35l1.633-10.077h-3.81L24.15.754h-.008zM38.679.412c.251.272.342.656.265 1.144-.063.37-.265.782-.62 1.242L36.46 5.234h-1.556l1.347-2.436c-.37-.293-.51-.705-.42-1.242.07-.453.28-.823.622-1.116.342-.293.74-.44 1.186-.44.447 0 .789.14 1.04.412zM46.53 3.63c-.733-.259-1.368-.385-1.892-.385-.411 0-.753.077-1.018.23a.913.913 0 00-.468.67c-.049.294.02.517.195.705.175.189.405.342.698.46.286.12.712.266 1.284.447.852.259 1.542.51 2.08.768.537.258.97.65 1.305 1.18.328.53.425 1.228.286 2.079-.14.851-.482 1.584-1.033 2.191-.551.607-1.242 1.06-2.08 1.36-.837.3-1.737.461-2.7.461a8.773 8.773 0 01-3.084-.558c-.998-.37-1.829-.88-2.492-1.528l1.724-2.617c.551.572 1.242 1.047 2.072 1.41.824.37 1.585.55 2.268.55.503 0 .908-.09 1.229-.271.313-.182.502-.454.558-.81.049-.293-.021-.537-.203-.732a1.923 1.923 0 00-.732-.468c-.307-.119-.74-.251-1.298-.412-.838-.244-1.529-.488-2.059-.74a3.075 3.075 0 01-1.29-1.137c-.329-.51-.426-1.18-.287-2.023a4.123 4.123 0 01.97-2.087c.517-.6 1.193-1.06 2.017-1.382.83-.32 1.751-.488 2.777-.488.928 0 1.821.133 2.687.39.858.266 1.598.615 2.212 1.054L48.56 4.62a9.454 9.454 0 00-2.03-.99z" fill="#fff"/></svg>