<svg xmlns="http://www.w3.org/2000/svg" width="90" height="45" fill="#fff"><path d="M65.901 16.54h8.597L64.316 29.86h-8.601l10.186-13.32zm-.647-1.301L54.431 29.402a1.06 1.06 0 00-.112 1.142c.183.373.57.615.98.615h9.662l10.911-14.271c.238-.32.273-.735.103-1.085a1.028 1.028 0 00-.93-.564h-9.791zM34.345 8.316a.318.318 0 01.274-.156h5.638l.81-4.655a.305.305 0 01.305-.246l5.277-.004c.097 0 .175.029.231.092a.335.335 0 01.073.253l-.525 3.012 24.808.018c.134 0 .23.081.277.159.029.058.068.175-.013.285l-2.24 2.925 18.386-.005c.107 0 .183.068.214.127a.199.199 0 01-.002.216L72.577 30.344c-.174.218-.166.772-.045 1.008.126.238.562.578.835.578l10.748.012a.301.301 0 01.301.347l-.817 4.675a.305.305 0 01-.305.245H42.401l-.672-.004a3.808 3.808 0 01-3.74 4.525 3.809 3.809 0 110-7.615 3.82 3.82 0 013.342 1.972l16.666-21.85c.268-.564.134-.766-.01-1.099-.107-.251-.509-.509-.948-.504H45.373l-2.981 17.022a.301.301 0 01-.3.227h-5.28a.307.307 0 01-.233-.105.292.292 0 01-.068-.244l3.238-18.476-13.17 25.82a.673.673 0 01-.585.341l-4.486.022c-.16 0-.292-.114-.306-.251l-1.237-18.756-9.73 18.648a.675.675 0 01-.582.339l-4.55-.003a.299.299 0 01-.302-.263L1.835 8.485a.324.324 0 01.077-.237.318.318 0 01.23-.086h6.116a.31.31 0 01.307.314l.917 18.574 8.994-18.728a.305.305 0 01.272-.16l5.575-.024c.154 0 .292.117.301.253l.906 18.717 8.815-18.792zm6.767-6.361c-.63 0-1.165.45-1.278 1.074l-.672 3.828H34.42c-.484 0-.917.261-1.163.713l-6.676 14.24-.662-13.766a1.302 1.302 0 00-1.295-1.186h-6.07c-.485 0-.932.27-1.163.716l-6.864 14.293L9.85 8.155a1.3 1.3 0 00-1.298-1.297H1.8a1.31 1.31 0 00-.959.405c-.24.264-.362.631-.338 1.013L3.53 37.353a1.298 1.298 0 001.293 1.155l5.019.002c.616 0 1.177-.336 1.467-.882l7.665-14.685.945 14.411a1.3 1.3 0 001.29 1.155l4.982.002c.613 0 1.18-.34 1.469-.889l9.315-18.263-1.804 10.301c-.068.379.038.765.282 1.065a1.3 1.3 0 00.994.462h5.904c.613 0 1.135-.427 1.272-1.043l2.84-16.21h10.143L41.279 33.993A5.109 5.109 0 0038 32.807a5.128 5.128 0 00-5.12 5.118A5.128 5.128 0 0038 43.044c2.59 0 4.794-1.979 5.092-4.534l40.464-.002c.637 0 1.173-.453 1.277-1.076l.926-5.268a1.308 1.308 0 00-.288-1.058 1.29 1.29 0 00-.993-.458l-10.494-.01 15.3-20.022c.26-.388.284-.856.068-1.259a1.227 1.227 0 00-1.091-.663H71.89l1.038-1.356a1.28 1.28 0 00.07-1.334 1.307 1.307 0 00-1.144-.694H47.973l.327-1.836a1.337 1.337 0 00-.302-1.069 1.257 1.257 0 00-.983-.45h-5.903z"/></svg>